<?xml version="1.0" encoding="utf-8"?>
<!-- Generator: Adobe Illustrator 25.0.0, SVG Export Plug-In . SVG Version: 6.00 Build 0)  -->
<svg version="1.0" id="Слой_1" xmlns="http://www.w3.org/2000/svg" xmlns:xlink="http://www.w3.org/1999/xlink" x="0px" y="0px"
	 viewBox="0 0 480 480" style="enable-background:new 0 0 480 480;" xml:space="preserve">
<style type="text/css">
	.st0{clip-path:url(#SVGID_2_);fill:#3F8CF4;}
	.st1{clip-path:url(#SVGID_4_);fill:none;}
	.st2{clip-path:url(#SVGID_6_);fill:none;}
	.st3{clip-path:url(#SVGID_8_);fill:#3F8CF4;}
	.st4{clip-path:url(#SVGID_10_);fill:#20A362;}
	.st5{clip-path:url(#SVGID_12_);fill:#EFEFEF;}
	.st6{clip-path:url(#SVGID_14_);fill:#EFEFEF;}
	.st7{clip-path:url(#SVGID_16_);fill:#EFEFEF;}
	.st8{clip-path:url(#SVGID_18_);}
	.st9{fill:#F7D646;}
	.st10{fill:#EFEFEF;}
	.st11{fill:#DC4B3F;}
</style>
<g>
	<g>
		<g>
			<defs>
				<circle id="SVGID_1_" cx="259.2" cy="247.9" r="187"/>
			</defs>
			<clipPath id="SVGID_2_">
				<use xlink:href="#SVGID_1_"  style="overflow:visible;"/>
			</clipPath>
			<path class="st0" d="M259.2,184.1l96.4-96.4c-59.1-35.6-133.7-35.6-192.8,0L259.2,184.1z"/>
		</g>
		<g>
			<defs>
				<circle id="SVGID_3_" cx="259.2" cy="247.9" r="187"/>
			</defs>
			<clipPath id="SVGID_4_">
				<use xlink:href="#SVGID_3_"  style="overflow:visible;"/>
			</clipPath>
			<circle class="st1" cx="259.2" cy="247.9" r="187"/>
		</g>
		<g>
			<defs>
				<circle id="SVGID_5_" cx="259.2" cy="247.9" r="187"/>
			</defs>
			<clipPath id="SVGID_6_">
				<use xlink:href="#SVGID_5_"  style="overflow:visible;"/>
			</clipPath>
			<circle class="st2" cx="259.2" cy="247.9" r="187"/>
		</g>
		<g>
			<defs>
				<circle id="SVGID_7_" cx="259.2" cy="247.9" r="187"/>
			</defs>
			<clipPath id="SVGID_8_">
				<use xlink:href="#SVGID_7_"  style="overflow:visible;"/>
			</clipPath>
			<path class="st3" d="M195.3,247.9L99,151.6c-35.6,59.1-35.6,133.7,0,192.8L195.3,247.9z"/>
		</g>
		<g>
			<defs>
				<circle id="SVGID_9_" cx="259.2" cy="247.9" r="187"/>
			</defs>
			<clipPath id="SVGID_10_">
				<use xlink:href="#SVGID_9_"  style="overflow:visible;"/>
			</clipPath>
			<path class="st4" d="M391.4,380.2c57-57,69.5-141.7,37.5-210.9L180.5,417.6C249.7,449.7,334.4,437.2,391.4,380.2z"/>
		</g>
		<g>
			<defs>
				<circle id="SVGID_11_" cx="259.2" cy="247.9" r="187"/>
			</defs>
			<clipPath id="SVGID_12_">
				<use xlink:href="#SVGID_11_"  style="overflow:visible;"/>
			</clipPath>
			<path class="st5" d="M259.2,184.1l96.4-96.4c-6.9-4.2-14.1-7.8-21.4-11l-75,75l-75-75c-7.3,3.2-14.4,6.9-21.4,11L259.2,184.1z"/>
		</g>
		<g>
			<defs>
				<circle id="SVGID_13_" cx="259.2" cy="247.9" r="187"/>
			</defs>
			<clipPath id="SVGID_14_">
				<use xlink:href="#SVGID_13_"  style="overflow:visible;"/>
			</clipPath>
			<path class="st6" d="M134.2,247.9c0,18.5-7.2,35.9-20.3,49l-26,26c3.2,7.3,6.9,14.4,11,21.4l31.1-31.1c36-36,36-94.5,0-130.5
				l-31-31.1c-4.2,6.9-7.8,14.1-11,21.4l26,26C127,212,134.2,229.4,134.2,247.9z"/>
		</g>
		<g>
			<defs>
				<circle id="SVGID_15_" cx="259.2" cy="247.9" r="187"/>
			</defs>
			<clipPath id="SVGID_16_">
				<use xlink:href="#SVGID_15_"  style="overflow:visible;"/>
			</clipPath>
			<path class="st7" d="M437.9,192.7c-2.5-8-5.4-15.8-9-23.4L180.5,417.6c7.6,3.5,15.5,6.5,23.4,9L437.9,192.7z"/>
		</g>
		<g>
			<defs>
				<circle id="SVGID_17_" cx="259.2" cy="247.9" r="187"/>
			</defs>
			<clipPath id="SVGID_18_">
				<use xlink:href="#SVGID_17_"  style="overflow:visible;"/>
			</clipPath>
			<g class="st8">
				<path class="st9" d="M99,344.3c7.7,12.8,17,24.8,28,35.8c16,16,34.2,28.5,53.6,37.5L429,169.2c-9-19.4-21.5-37.6-37.5-53.6
					c-11-11-23.1-20.3-35.8-28L259.3,184l-96.4-96.4c-12.8,7.7-24.8,17-35.8,28s-20.3,23.1-28,35.8l31.1,31.1c36,36,36,94.5,0,130.5
					L99,344.3z"/>
			</g>
		</g>
	</g>
	<g>
		<circle class="st10" cx="346.4" cy="168.8" r="123.7"/>
		<circle class="st11" cx="346.4" cy="168.8" r="84.6"/>
		<path class="st11" d="M346.4,58c61.1,0,110.8,49.7,110.8,110.8s-49.7,110.8-110.8,110.8s-110.8-49.7-110.8-110.8
			S285.4,58,346.4,58 M346.4,45.1c-68.3,0-123.7,55.4-123.7,123.7s55.4,123.7,123.7,123.7s123.7-55.4,123.7-123.7
			S414.8,45.1,346.4,45.1L346.4,45.1z"/>
	</g>
	<g>
		<circle class="st10" cx="64.4" cy="247.9" r="54.6"/>
		<circle class="st10" cx="64.4" cy="247.9" r="54.6"/>
		<circle class="st11" cx="64.4" cy="247.9" r="28.6"/>
		<path class="st11" d="M64.4,206.3c22.9,0,41.6,18.7,41.6,41.6s-18.7,41.6-41.6,41.6s-41.6-18.7-41.6-41.6S41.4,206.3,64.4,206.3
			 M64.4,193.4c-30.1,0-54.6,24.4-54.6,54.6s24.4,54.6,54.6,54.6S119,278.2,119,248S94.5,193.4,64.4,193.4L64.4,193.4z"/>
	</g>
</g>
</svg>
